<svg width="44" height="44" viewBox="0 0 44 44" fill="none" xmlns="http://www.w3.org/2000/svg">
<path d="M19.0766 0.0988216C15.1014 0.631666 11.3884 2.20482 8.27596 4.69141C3.74258 8.30289 0.943045 13.2592 0.11418 19.1712C-0.0380601 20.2199 -0.0380601 23.5185 0.11418 24.5842C0.486324 27.2822 1.21369 29.6081 2.42316 31.9594C5.75553 38.4549 12.1835 42.8699 19.5333 43.7157C20.7174 43.851 23.2293 43.851 24.4388 43.7072C28.4816 43.2505 32.4145 41.6182 35.6454 39.047C36.6688 38.235 38.2419 36.6788 39.0285 35.7146C40.3733 34.0484 41.7942 31.5534 42.5385 29.5404C45.5072 21.4971 43.5619 12.4726 37.5484 6.43371C34.1907 3.06751 30.021 0.927687 25.3269 0.174944C24.1174 -0.0195866 20.3114 -0.0618763 19.0766 0.0988216ZM25.5891 1.35904C27.805 1.78193 29.505 2.3486 31.425 3.32125C34.732 4.99589 37.7006 7.71084 39.6375 10.8571C41.2445 13.4452 42.2171 16.1602 42.64 19.2557C42.8007 20.4398 42.8176 23.104 42.6738 24.2458C42.0395 29.1683 39.8574 33.5579 36.3981 36.8903C33.0911 40.0704 28.7269 42.1172 24.2527 42.5993C23.001 42.7346 19.7363 42.6669 18.6452 42.4809C14.3402 41.7366 10.475 39.7913 7.42172 36.8226C3.63263 33.135 1.4928 28.5001 1.12066 23.1717C0.765431 18.0716 2.43162 12.8447 5.71324 8.76807C6.50828 7.77851 8.22521 6.10386 9.1302 5.41878C12.4118 2.94065 15.7188 1.61277 19.8293 1.12222C19.99 1.1053 21.098 1.09685 22.2821 1.11376C24.1851 1.13067 24.5741 1.16451 25.5891 1.35904Z" fill="black"/>
<path d="M17.2158 3.15209C16.8014 3.67647 17.2412 4.38693 17.8925 4.2516C18.087 4.21777 18.197 4.26006 18.4338 4.46305C18.7805 4.76753 19.4064 5.68097 19.4064 5.88396C19.4064 5.96008 19.1527 6.17152 18.8228 6.38297C17.4104 7.25412 16.4293 8.61583 16.1079 10.1467C16.0318 10.5442 15.981 10.6288 15.8711 10.595C14.3148 10.1213 11.9974 10.2989 10.4581 11.0094C9.35855 11.5253 8.11526 12.5402 7.48938 13.4452C7.04957 14.0965 6.38987 15.5681 6.19534 16.3378C5.95006 17.3274 5.92469 19.4756 6.14459 20.6513C6.27991 21.3786 6.60131 22.5797 6.79584 23.0787L6.88888 23.3155H9.44313C10.8556 23.3155 12.0481 23.2817 12.0904 23.2478C12.1412 23.214 12.4034 22.8672 12.6825 22.4697C13.7735 20.8796 13.9427 20.7697 14.3909 21.3448C14.5347 21.5224 14.6701 21.7423 14.7039 21.8354C14.7377 21.9284 14.9661 22.3005 15.2029 22.6558L15.6427 23.3155H16.9198H18.2054L18.2562 23.0364C18.2815 22.8926 18.5099 22.0806 18.7636 21.2433C19.0174 20.406 19.4149 19.0189 19.6602 18.1562C20.1845 16.3209 20.2184 16.2363 20.4467 16.1771C20.8104 16.0841 20.9627 16.304 21.1741 17.2343C21.5378 18.8751 22.2059 21.5055 22.6542 23.0618C22.8318 23.6707 23.3139 25.4807 23.7368 27.1215C24.0413 28.3056 24.1428 28.6354 24.1428 28.4325C24.1428 28.331 24.7179 24.5757 25.1493 21.8354C25.5214 19.501 25.7836 17.708 26.0458 15.7458C26.2149 14.4686 26.2488 14.3587 26.4433 14.2572C26.8493 14.0373 27.103 14.3164 27.2214 15.1114C27.4582 16.6761 28.2871 21.514 28.5831 23.0618C28.7015 23.6453 28.82 24.2881 28.8538 24.4996L28.9299 24.8802L29.1667 24.2036C29.302 23.8314 29.4881 23.3239 29.5727 23.0871L29.7334 22.6389L33.514 22.6219L37.2947 22.5966L37.4892 21.8354C37.8783 20.2791 38.022 18.393 37.8444 17.2259C37.6076 15.7035 36.8802 13.995 36.026 12.9801C34.6389 11.3223 32.4991 10.3581 30.1901 10.3581C29.5727 10.3581 28.9299 10.4089 28.5493 10.4935C28.2025 10.5611 27.915 10.6203 27.9065 10.6034C27.9065 10.595 27.8304 10.3243 27.7458 9.99445C27.4752 8.94568 27.0523 8.20985 26.2572 7.40636C25.8597 7.00884 25.31 6.53521 25.0309 6.35759C24.7517 6.17998 24.5065 6.01928 24.4896 6.01082C24.405 5.9347 24.9547 5.00435 25.3184 4.6322C25.6736 4.24314 25.7498 4.20086 25.9781 4.2516C26.5871 4.37001 27.0354 3.78642 26.7562 3.24512C26.6209 2.98293 26.5194 2.93218 26.1557 2.93218C25.8343 2.93218 25.496 3.16055 25.496 3.37199C25.496 3.42274 25.2338 3.71876 24.9124 4.0317C24.5065 4.42922 24.2527 4.76753 24.0582 5.16504C23.8214 5.66405 23.7622 5.73172 23.6099 5.68943C23.0094 5.51181 21.9184 5.44415 21.1656 5.52873C20.7343 5.57948 20.3114 5.64714 20.2353 5.68097C20.1253 5.72326 20.0577 5.66405 19.9562 5.41878C19.7616 4.9536 19.2711 4.28543 18.8059 3.87946C18.5776 3.67647 18.3915 3.45657 18.3915 3.38891C18.3915 3.15209 18.0616 2.93218 17.7233 2.93218C17.4611 2.93218 17.3512 2.98293 17.2158 3.15209ZM19.5248 7.76159C19.694 7.89691 19.7447 8.00686 19.7447 8.2606C19.7447 8.70886 19.6771 8.83573 19.3895 8.98797C18.882 9.25016 18.3069 8.87802 18.3069 8.28597C18.3069 7.67701 19.0258 7.36407 19.5248 7.76159ZM25.4284 7.83771C25.9274 8.45513 25.2 9.35166 24.498 8.98797C24.0498 8.75961 23.9821 8.10836 24.3711 7.76159C24.5572 7.60089 24.6587 7.57552 24.9378 7.60935C25.1493 7.64318 25.3438 7.72776 25.4284 7.83771Z" fill="black"/>
<path d="M26.5702 18.6721C26.4602 19.2811 25.9528 22.5289 25.6652 24.5842C25.6144 24.9309 25.4199 26.2419 25.2338 27.5021C25.0478 28.7538 24.8532 30.0902 24.811 30.4623C24.7095 31.232 24.5657 31.5195 24.2866 31.5195C23.8383 31.5111 23.8468 31.528 22.6627 26.7832C22.2144 24.9563 21.8338 23.5016 21.6308 22.7657C21.5124 22.3428 21.2164 21.2433 20.9711 20.313L20.5313 18.6214L20.2607 19.5095C20.1084 20 19.897 20.6597 19.787 20.9896C19.5925 21.5647 19.1273 23.2055 19.0258 23.6792C19.0004 23.806 18.9074 23.9836 18.8144 24.0767C18.6537 24.2374 18.5268 24.2458 16.9537 24.2458H15.2706L15.0507 23.9667C14.9322 23.823 14.6362 23.4001 14.3825 23.0364L13.9258 22.3767L13.4521 23.0364C13.1899 23.4001 12.877 23.823 12.7586 23.9667L12.5471 24.2458H9.93369C8.4874 24.2458 7.31177 24.2797 7.31177 24.322C7.31177 24.4319 7.77695 25.413 8.1068 25.9881L8.40282 26.5125L7.77695 26.5464C7.26948 26.5717 7.1257 26.6056 7.0242 26.7409C6.95654 26.8339 6.66052 27.5951 6.38141 28.4325C6.09384 29.2698 5.82319 30.0225 5.78091 30.0986C5.7217 30.2001 5.59483 30.2509 5.37493 30.2509C4.7998 30.2509 4.46995 30.8683 4.85901 31.2235C5.09582 31.435 6.31375 31.3758 6.55902 31.1305C6.6436 31.0375 6.965 30.2255 7.26102 29.3205L7.80232 27.6712L8.12372 27.6797C8.30979 27.6882 8.61427 27.6966 8.80034 27.7051C9.11328 27.7135 9.17248 27.7474 9.39239 28.0688C9.52771 28.2718 9.9506 28.8553 10.3312 29.3713C10.7203 29.8957 11.0332 30.3355 11.0332 30.3608C11.0332 30.3862 10.6695 30.5469 10.2213 30.7161C8.97795 31.1982 9.05407 31.0375 9.11328 33.1773L9.17248 34.9872L8.84263 35.1479C8.66502 35.241 8.49586 35.3763 8.46203 35.4524C8.30133 35.8669 8.50432 36.2559 8.88492 36.2559C9.18094 36.2559 10.0775 35.7823 10.1959 35.5624C10.272 35.4271 10.2805 34.9196 10.2382 33.6594L10.179 31.9424L10.5004 31.7987C10.678 31.731 11.0501 31.5788 11.3292 31.4773L11.8451 31.2827L13.0462 32.4837L14.2472 33.6847L14.0188 33.93C13.8919 34.0738 13.5536 34.4375 13.2491 34.7589C12.767 35.2664 12.7078 35.3594 12.7501 35.6047C12.767 35.7484 13.0715 36.5435 13.4183 37.3554L14.0526 38.8355L13.8158 39.1316C13.4268 39.5967 13.5198 40.0704 14.0188 40.1973C14.2302 40.248 14.3148 40.1973 14.7631 39.7152C15.1099 39.3346 15.2621 39.1062 15.2621 38.9455C15.2621 38.8271 14.9745 38.0659 14.6278 37.2624C14.281 36.4674 13.9934 35.7569 13.9934 35.7062C13.9934 35.647 14.2556 35.3256 14.5686 34.9872L15.1437 34.3698L16.2686 35.2325C16.886 35.7062 17.8502 36.3997 18.4169 36.7803C20.1676 37.9475 20.5567 38.0997 21.1064 37.8206C21.3179 37.7022 21.4025 37.7022 21.6562 37.7952C21.8846 37.8798 22.003 37.8798 22.2144 37.7952C22.4428 37.7107 22.5527 37.7191 22.8572 37.8375C23.3562 38.0236 23.6776 37.9136 24.9463 37.1186C25.8513 36.5519 28.0588 34.9534 28.4901 34.5474C28.5831 34.4629 28.6846 34.3952 28.7185 34.3952C28.82 34.3952 29.8941 35.5793 29.8941 35.6977C29.8941 35.7569 29.5981 36.4927 29.2259 37.3216C28.4563 39.0724 28.4563 39.0554 29.1413 39.7744C29.615 40.2565 29.8095 40.3241 30.1309 40.0958C30.4016 39.9097 30.3762 39.4953 30.0632 39.1485C29.911 38.9709 29.8349 38.8102 29.8687 38.7256C29.9026 38.6495 30.1986 37.9475 30.5453 37.1694C30.8837 36.3912 31.1628 35.6554 31.1628 35.5285C31.1628 35.3594 30.9767 35.1141 30.4016 34.5305C29.9871 34.0992 29.6404 33.7186 29.6488 33.6678C29.6488 33.6255 29.8941 33.3803 30.1986 33.1265C30.4946 32.8728 31.0274 32.3484 31.3827 31.9678L32.017 31.2827L32.8374 31.6041L33.6578 31.9171L33.624 33.727C33.5902 35.7738 33.5394 35.6047 34.326 36.0276C35.0026 36.3997 35.4762 36.2813 35.4762 35.74C35.4762 35.537 35.4001 35.4355 35.0872 35.2156L34.6981 34.945L34.7573 33.2111L34.825 31.4688L34.622 31.2489C34.5121 31.1305 34.0638 30.8937 33.6409 30.7161C33.2096 30.5384 32.8543 30.3693 32.8543 30.3439C32.8543 30.3101 33.1165 29.9464 33.4295 29.532C33.7424 29.1091 34.1653 28.5339 34.3683 28.2379L34.7404 27.7135H35.4424C35.9583 27.7135 36.1529 27.7474 36.1529 27.815C36.1529 28.0603 37.1509 30.9444 37.2862 31.0882C37.3877 31.2066 37.6161 31.2743 37.9967 31.325C38.6817 31.4011 38.8509 31.3842 39.0454 31.2066C39.4007 30.8852 39.13 30.3777 38.5633 30.2847C38.3011 30.2509 38.1489 30.1748 38.0812 30.0563C38.0305 29.9633 37.7683 29.219 37.4977 28.3986C37.2185 27.5528 36.931 26.8424 36.8295 26.7493C36.7026 26.614 36.5081 26.5633 36.0767 26.5294L35.5016 26.4872L35.8484 25.8528C36.1698 25.2692 36.4658 24.6603 36.7872 23.8822L36.9141 23.5692H33.6747H30.4269L30.2916 23.8822C30.207 24.0598 29.9448 24.8041 29.6911 25.5399C29.1667 27.0623 29.0483 27.2906 28.7523 27.2906C28.5831 27.2906 28.2871 27.1046 28.2871 26.9862C28.2871 26.9016 27.9403 24.7618 27.8727 24.415C27.8304 24.2036 27.7458 23.7468 27.6951 23.4001C27.5767 22.6558 27.0692 19.797 26.8577 18.7144L26.714 17.9617L26.5702 18.6721Z" fill="#B50000"/>
<path d="M39.2738 21.3617C38.3265 21.5478 37.7006 22.5374 37.929 23.4846C38.0474 23.9583 38.4703 24.4996 38.8932 24.7026C39.0539 24.7787 39.3922 24.8379 39.6882 24.8379C40.0857 24.8379 40.2549 24.7956 40.5171 24.618C40.9146 24.3473 41.0161 24.2205 41.2275 23.7807C41.845 22.5035 40.6947 21.0911 39.2738 21.3617ZM39.8743 22.3851V22.808H40.2887C40.7454 22.808 40.8469 22.8841 40.7624 23.1463C40.7285 23.2563 40.6355 23.3155 40.4833 23.3155C39.9673 23.3155 39.8743 23.3916 39.8743 23.7891C39.8743 24.1443 39.8658 24.1613 39.6206 24.1613C39.3753 24.1613 39.3668 24.1443 39.3668 23.7891V23.4254L38.9355 23.3662C38.538 23.3155 38.5126 23.2986 38.538 23.0787C38.5633 22.8672 38.5972 22.8503 38.9693 22.8249L39.3668 22.7996V22.3767C39.3668 21.9707 39.3753 21.9622 39.6206 21.9622C39.8658 21.9622 39.8743 21.9707 39.8743 22.3851Z" fill="black"/>
</svg>
